# xmcd
#
# Track frame offsets:
#	150
#	10853
#	21220
#	34998
#	44856
#	60519
#	80997
#	93977
#	103940
#	120802
#	132813
#	148614
#	160312
#	171336
#	182541
#	193046
#
# Disc length: 2693 seconds
#
# Revision: 1
# Processed by: cddbd v1.5.2PL0 Copyright (c) Steve Scherf et al.
# Submitted via: audiograbber 1.83.01
#
DISCID=dc0a8310
DTITLE=Drifters Caravan - 70 DD and 30 DC
DYEAR=1998
DGENRE=country
TTITLE0=Intro Song
TTITLE1=Six Days On The Road
TTITLE2=Funny How Time Slips Away
TTITLE3=Squaws Along The Yukon
TTITLE4=Drinking Champagne
TTITLE5=Kawliga
TTITLE6=Blue Eyes Crying In The Rain
TTITLE7=A White Sport Coat
TTITLE8=Jukebox On My Mind
TTITLE9=Hey Bartender
TTITLE10=Can't Help Falling In Love
TTITLE11=I've Got An Angel
TTITLE12=Why Me Lord
TTITLE13=Love Bug
TTITLE14=Down In The Valley
TTITLE15=Golden Slippers
EXTD=
EXTT0=
EXTT1=
EXTT2=
EXTT3=
EXTT4=
EXTT5=
EXTT6=
EXTT7=
EXTT8=
EXTT9=
EXTT10=
EXTT11=
EXTT12=
EXTT13=
EXTT14=
EXTT15=
PLAYORDER=
